# xmcd
#
# Track frame offsets:
#	150
#	24294
#	42488
#	64514
#	91489
#	109393
#	123553
#	143944
#	159866
#	194571
#	216985
#	237132
#	253264
#	276954
#	312352
#
# Disc length: 4344 seconds
#
# Revision: 1
# Processed by: cddbd v1.5.2PL0 Copyright (c) Steve Scherf et al.
# Submitted via: audiograbber 1.83.01
#
DISCID=e010f60f
DTITLE=Ludwig Seuss Band - Live im Lustspielhaus
DYEAR=2018
DGENRE=Blues
TTITLE0=All Night Long
TTITLE1=Drive It On home
TTITLE2=County Girl
TTITLE3=Let The Good Times Roll
TTITLE4=Watch The Dog
TTITLE5=Seacruise
TTITLE6=Till The Moon Is Full Again
TTITLE7=Let It Out
TTITLE8=Hot Tamale Baby
TTITLE9=Cher Catin
TTITLE10=See You Later Alligator
TTITLE11=Maybelline
TTITLE12=Magic 8
TTITLE13=Down The Road
TTITLE14=Ay Ya Ya
EXTD=
EXTT0=
EXTT1=
EXTT2=
EXTT3=
EXTT4=
EXTT5=
EXTT6=
EXTT7=
EXTT8=
EXTT9=
EXTT10=
EXTT11=
EXTT12=
EXTT13=
EXTT14=
PLAYORDER=
